PathFileType	4	(X/Y/Z)	C:\ABL_Data\ExoAging\Piloting\Dec 6 2019\Generated_files\static_2.trc
DataRate	CameraRate	NumFrames	NumMarkers	Units	OrigDataRate	OrigDataStartFrame	OrigNumFrames
100.00	100.00	       16	20	mm	100.00	427	       568
Frame#	Time	R.Acromium			L.Acromium			Sternum			R.ASIS			R.PSIS			S2			L.PSIS			L.ASIS			R.Knee			R.Ankle			L.Knee			L.Ankle			R.MKnee			R.MAnkle			L.MKnee			L.MAnkle			C7			T12			Clav			R.Back			
		X1	Y1	Z1	X2	Y2	Z2	X3	Y3	Z3	X4	Y4	Z4	X5	Y5	Z5	X6	Y6	Z6	X7	Y7	Z7	X8	Y8	Z8	X9	Y9	Z9	X10	Y10	Z10	X11	Y11	Z11	X12	Y12	Z12	X13	Y13	Z13	X14	Y14	Z14	X15	Y15	Z15	X16	Y16	Z16	X17	Y17	Z17	X18	Y18	Z18	X19	Y19	Z19	X20	Y20	Z20	

427	4.260	839.73059	385.53418	1493.99805	848.16766	789.77478	1484.59839				913.37323	449.87088	1005.00354	729.66748	527.97882	1046.52014	711.50964	581.85291	1022.21899	734.08453	631.33136	1050.14551	919.76868	708.70068	1017.96796	819.00110	383.57935	512.32471	759.20453	378.59961	86.55957	819.33179	765.53558	509.59683	766.81848	775.50922	78.85519	840.91907	495.97150	489.10345	803.78491	458.56894	92.01373	829.97211	652.23596	487.09280	783.81006	685.39954	93.61979	757.63110	573.44196	1555.28613	734.42487	582.54657	1187.14136	918.31561	578.86658	1459.40723	692.26501	458.24362	1394.53235	
428	4.270	839.74622	385.64523	1494.01392	848.13287	789.76947	1484.61584				913.36853	449.82767	1005.02985	729.62439	527.97577	1046.52783	711.47784	581.79993	1022.24402	734.07635	631.32068	1050.16724	919.77454	708.68756	1017.99854	819.00873	383.57211	512.33289	759.22186	378.57053	86.55930	819.30707	765.47144	509.66815	766.82953	775.47321	78.87191	840.95850	495.91113	489.11234	803.77899	458.59317	92.02567	829.97046	652.24231	487.08102	783.82745	685.40186	93.60034	757.61646	573.31354	1555.30432	734.41864	582.44739	1187.14087	918.35950	578.08356	1459.38232	692.26941	458.19550	1394.57080	
429	4.280	839.75372	385.62457	1494.02722	848.14026	789.78046	1484.64233				913.37555	449.83829	1005.03088	729.60889	527.94733	1046.54529	711.43719	581.75659	1022.24933	734.04999	631.30579	1050.16528	919.78949	708.56415	1018.08514	818.98083	383.56604	512.42468	759.22717	378.57324	86.55041	819.33014	765.46136	509.65811	766.82660	775.46381	78.85339	840.96716	495.92459	489.09137	803.80756	458.56183	91.99078	829.95630	652.22845	487.00223	783.86829	685.40509	93.56123	757.58563	573.41156	1555.29431	734.39886	582.42828	1187.14734	918.34143	578.12415	1459.40747	692.23615	458.16360	1394.59473	
430	4.290	839.71716	385.54639	1494.01038	848.10504	789.80450	1484.60278				913.30780	449.82678	1005.02399	729.57263	527.94794	1046.50171	711.40839	581.78632	1022.22797	733.97656	631.29694	1050.13721	919.70874	708.59979	1018.03223	819.02649	383.52866	512.34882	759.22003	378.57291	86.50353	819.29193	765.45209	509.63934	766.87152	775.46698	78.83698	840.95038	495.93188	489.10202	803.82990	458.57050	91.98845	829.92346	652.20178	486.98001	783.86353	685.39789	93.56968	757.55060	573.44464	1555.28003	734.32678	582.47278	1187.12927	918.22467	578.83679	1459.40759	692.20093	458.18091	1394.57397	
431	4.300	839.68042	385.58496	1494.02319	848.07001	789.75275	1484.55591				913.25342	449.80887	1005.05554	729.54742	527.92010	1046.46875	711.36487	581.71893	1022.20502	733.91840	631.25110	1050.11182	919.59833	708.61609	1017.95721	819.00092	383.55817	512.30792	759.22192	378.53769	86.55519	819.27466	765.42474	509.61258	766.83691	775.48370	78.85390	840.96698	495.89185	489.10242	803.80487	458.57574	92.00011	829.89453	652.20093	487.04013	783.83105	685.37543	93.56532	757.52081	573.39886	1555.28894	734.33289	582.44879	1187.11694	918.15283	578.87335	1459.35413	692.68787	458.29572	1394.37561	
432	4.310	839.68573	385.58914	1494.04651	848.08423	789.78955	1484.55493				913.23022	449.80258	1005.07581	729.50714	527.88947	1046.48853	711.33258	581.72656	1022.19403	733.87177	631.21869	1050.15381	919.54840	708.60809	1017.99310	819.02618	383.43561	512.38000	759.20081	378.54926	86.58698	819.27081	765.44806	509.58459	766.74719	775.50305	78.86517	840.88129	495.91299	489.14462	803.82050	458.59293	91.92803	829.90851	652.16864	487.03351	783.77740	685.37952	93.60940	757.48468	573.36377	1555.26282	734.34332	582.42303	1187.09277	918.17670	578.26489	1459.28040	692.64679	458.25241	1394.43860	
433	4.320	839.64319	385.51263	1494.04578	848.03821	789.78589	1484.53735				913.21063	449.76855	1005.07697	729.50024	527.90167	1046.48828	711.28546	581.65851	1022.22546	733.81342	631.21106	1050.14209	919.52582	708.57513	1018.02460	818.99835	383.50757	512.34552	759.22675	378.56915	86.56809	819.19055	765.43463	509.60776	766.76074	775.51270	78.87286	840.83539	495.90195	489.14084	803.78711	458.54886	91.98902	829.89484	652.18488	487.01752	783.78284	685.39758	93.61337	757.46960	573.38281	1555.27954	734.33014	582.36475	1187.11963	918.13147	578.26434	1459.29248	692.63098	458.23465	1394.44287	
434	4.330	839.64948	385.60361	1494.05066	848.02509	789.74377	1484.54846				913.18939	449.76450	1005.02820	729.46179	527.85046	1046.50317	711.21796	581.63947	1022.28131	733.80408	631.17767	1050.16174	919.52087	708.56903	1018.04718	818.98120	383.49100	512.31329	759.22980	378.51794	86.55286	819.16510	765.40857	509.60837	766.82245	775.45850	78.84824	840.87714	495.89166	489.12234	803.79895	458.61099	91.95642	829.87677	652.23938	487.00412	783.82904	685.40448	93.57200	757.42773	573.41571	1555.30347	734.23669	582.41870	1187.17285	918.01904	578.88129	1459.39661	692.61475	458.21661	1394.43933	
435	4.340	839.59277	385.52835	1494.07202	847.97949	789.69525	1484.54700				913.16144	449.78458	1005.00372	729.42773	527.82739	1046.49023	711.16815	581.63593	1022.29523	733.75677	631.14020	1050.17737	919.48364	708.60168	1017.99310	818.96692	383.53067	512.30231	759.20911	378.52444	86.52373	819.12415	765.40479	509.60580	766.86993	775.42468	78.78378	840.80743	495.92996	489.12820	803.84088	458.58347	91.92358	829.82080	652.19879	487.00699	783.88379	685.41614	93.52970	757.37384	573.36774	1555.31812	734.23199	582.32495	1187.12903	918.05994	578.10681	1459.35535	692.54718	458.23773	1394.44373	
436	4.350	839.59534	385.59412	1494.07593	847.90210	789.74493	1484.47778				913.14020	449.77444	1005.03021	729.39807	527.81726	1046.45972	711.12878	581.58746	1022.26886	733.71436	631.14587	1050.19043	919.44348	708.53424	1018.02722	818.97369	383.52487	512.31293	759.19452	378.52551	86.52650	819.07196	765.39301	509.58255	766.86377	775.42932	78.78376	840.83777	495.88284	489.10876	803.82678	458.57260	91.91071	829.70276	652.21094	486.88934	783.84192	685.38831	93.54110	757.35657	573.43372	1555.31201	734.17169	582.36169	1187.12366	917.94415	578.93005	1459.39929	692.51868	458.24323	1394.44421	
437	4.360	839.57874	385.56589	1494.04834	847.85510	789.77338	1484.45276				913.08301	449.75320	1005.00214	729.36578	527.80865	1046.44141	711.09448	581.60120	1022.25885	733.65942	631.15717	1050.16956	919.32703	708.56268	1017.96051	818.97626	383.43359	512.31665	759.18738	378.51181	86.52374	819.02081	765.41315	509.55255	766.79272	775.48474	78.79346	840.83331	495.84216	489.12720	803.80450	458.57971	91.94528	829.65411	652.17468	486.89774	783.78918	685.37115	93.54818	757.32422	573.37231	1555.27112	734.16119	582.29913	1187.11267	917.88660	578.97461	1459.29175	692.51190	458.21039	1394.44434	
438	4.370	839.49695	385.56967	1494.04126	847.81006	789.71344	1484.40283				912.98077	449.75015	1004.97925	729.36255	527.82098	1046.44458	711.01801	581.58124	1022.25403	733.61548	631.13965	1050.18066	919.24890	708.54742	1017.98828	818.97009	383.48126	512.28809	759.19330	378.51428	86.51452	819.00525	765.39526	509.55142	766.75684	775.47137	78.84439	840.78302	495.88617	489.10800	803.71729	458.57587	92.01174	829.60718	652.16779	486.88773	783.73456	685.35504	93.58494	757.25024	573.34161	1555.27637	734.13593	582.32813	1187.09924	917.93060	578.25818	1459.12573	692.46411	458.17889	1394.45667	
439	4.380	839.47968	385.51892	1494.01428	847.78204	789.69452	1484.34229				912.94366	449.77271	1004.97064	729.31305	527.80524	1046.44910	710.96173	581.57721	1022.26984	733.53632	631.16357	1050.21570	919.20001	708.55627	1017.98865	818.93890	383.46622	512.29077	759.18481	378.51907	86.54688	818.98358	765.40320	509.50546	766.73010	775.49591	78.83129	840.73499	495.83987	489.06494	803.72565	458.61838	91.95396	829.59760	652.18610	486.87616	783.72583	685.38531	93.55723	757.17596	573.28241	1555.26660	734.10645	582.30829	1187.07214	917.82275	578.94141	1459.23608	692.37744	458.22137	1394.43457	
440	4.390	839.46710	385.55206	1493.97473	847.75366	789.67590	1484.35706				912.92255	449.73544	1004.92871	729.27563	527.73767	1046.45618	710.93005	581.52203	1022.28412	733.51788	631.12079	1050.21411	919.17902	708.55743	1017.95935	818.91302	383.45044	512.27106	759.20715	378.53116	86.50877	818.96442	765.38293	509.54706	766.74127	775.47955	78.79124	840.67389	495.92926	489.10602	803.70685	458.57291	92.01172	829.62012	652.19312	486.85202	783.77917	685.38080	93.52560	757.18365	573.27087	1555.30457	734.06366	582.25641	1187.12207	917.88318	578.08380	1459.16016	692.36194	458.18170	1394.42419	
441	4.400	839.42969	385.52502	1493.94958	847.71002	789.65851	1484.37854				912.91791	449.72794	1004.92542	729.23175	527.72852	1046.45544	710.88647	581.48279	1022.31104	733.46277	631.08594	1050.20813	919.21130	708.50360	1018.01636	818.87744	383.43301	512.24921	759.18317	378.49670	86.49783	818.95636	765.41235	509.54919	766.81946	775.41541	78.73176	840.69165	495.87601	489.10995	803.80908	458.56750	91.91917	829.62335	652.21088	486.80508	783.81189	685.39178	93.49564	757.12982	573.14740	1555.29688	734.04993	582.20959	1187.12122	917.77856	578.85229	1459.26709	692.34125	458.16608	1394.43066	
442	4.410	839.39899	385.45261	1493.91467	847.62433	789.73126	1484.31360				912.88275	449.74872	1004.91791	729.19354	527.71417	1046.44153	710.82837	581.47992	1022.28894	733.44464	631.08167	1050.18982	919.13025	708.55237	1017.92261	818.85065	383.43448	512.25476	759.18787	378.46991	86.48261	818.96429	765.38599	509.52335	766.82361	775.44342	78.70833	840.62634	495.91953	489.09961	803.81116	458.54688	91.88416	829.61719	652.19965	486.79706	783.82520	685.38965	93.47057	757.07294	573.17731	1555.30310	733.99945	582.20404	1187.09167	917.75220	578.85034	1459.23315	692.27386	458.15823	1394.44568	
